<svg width="345" height="76" viewBox="0 0 345 76" fill="none" xmlns="http://www.w3.org/2000/svg">
<rect x="0.665" y="0.665" width="343.67" height="74.67" rx="5.335" fill="white"/>
<path d="M140.912 48.056L140.64 48.136H137.216V62.392H138.864V49.832H140.08C139.856 50.92 139.552 52.312 139.264 53.32C140.08 54.472 140.24 55.544 140.24 56.312C140.24 56.792 140.16 57.16 140 57.304C139.888 57.4 139.744 57.448 139.584 57.448C139.424 57.448 139.248 57.448 138.992 57.432C139.264 57.896 139.376 58.6 139.392 59.064C139.712 59.08 140.064 59.08 140.336 59.032C140.688 58.984 140.992 58.872 141.216 58.68C141.696 58.296 141.904 57.608 141.904 56.552C141.904 55.592 141.712 54.44 140.832 53.128C141.248 51.864 141.76 50.168 142.128 48.76L140.912 48.056ZM144.24 47.48C143.616 49.656 142.496 51.816 141.232 53.208C141.568 53.576 142.128 54.456 142.336 54.856C142.576 54.584 142.816 54.28 143.04 53.96V62.328H144.704V51.096C145.184 50.088 145.6 49 145.936 47.944L144.24 47.48ZM145.232 54.456C145.728 55.56 146.336 57.048 146.608 58.008L148.128 57.272C147.84 56.328 147.232 54.904 146.688 53.8L145.232 54.456ZM151.552 50.936H150.384V47.768H148.56V50.936H145.264V52.696H148.56V60.152C148.56 60.392 148.48 60.456 148.24 60.472C148.016 60.472 147.328 60.472 146.624 60.456C146.864 60.984 147.152 61.816 147.2 62.344C148.336 62.344 149.136 62.264 149.664 61.96C150.208 61.64 150.384 61.112 150.384 60.168V52.696H151.552V50.936ZM165.72 53.72V59.752H167.672V53.72H170.184V51.96H163.512V50.008C165.784 49.88 168.216 49.576 170.024 49L168.472 47.608C166.856 48.104 164.072 48.392 161.576 48.488V51.944C161.576 53.896 161.448 56.584 160.088 58.472C160.552 58.68 161.384 59.272 161.736 59.624C162.888 58.024 163.32 55.736 163.448 53.72H165.72ZM159.72 49.832C159.24 49.208 158.328 48.2 157.56 47.448L156.136 48.312C156.888 49.112 157.816 50.216 158.28 50.904L159.72 49.832ZM159.368 54.984L159.08 55.032H157.864C158.728 53.944 159.752 52.488 160.376 51.608L159.208 51.08L159.032 51.16H155.736V52.68H157.8C157.208 53.528 156.536 54.408 156.232 54.696C155.944 55.016 155.672 55.144 155.416 55.208C155.576 55.544 155.928 56.36 156.024 56.744C156.152 56.616 156.616 56.504 157 56.504H158.392C157.864 58.68 156.808 60.248 155.32 61.128C155.672 61.368 156.28 62.04 156.52 62.408C157.336 61.88 158.024 61.16 158.616 60.216C159.848 61.816 161.672 62.12 164.568 62.12C166.44 62.12 168.472 62.088 170.12 61.976C170.216 61.464 170.456 60.6 170.728 60.216C168.92 60.392 166.312 60.488 164.616 60.488C162.088 60.472 160.328 60.28 159.352 58.776C159.768 57.784 160.088 56.632 160.296 55.32L159.368 54.984ZM188.864 58.44V56.824H182.624C182.672 56.552 182.72 56.28 182.752 55.992H189.328V54.344H182.96V53.496H187.856V51.896H182.96V51.08H188.624V49.4H185.552C185.904 48.936 186.272 48.408 186.624 47.848L184.576 47.32C184.32 47.944 183.84 48.776 183.44 49.4H179.92L180.384 49.192C180.176 48.648 179.68 47.88 179.184 47.32L177.488 47.992C177.808 48.408 178.144 48.92 178.384 49.4H175.344V51.08H180.992V51.896H176.256V53.496H180.992V54.344H174.848V55.992H180.736C180.704 56.28 180.656 56.568 180.608 56.824H175.216V58.44H179.984C179.232 59.512 177.728 60.232 174.512 60.664C174.88 61.064 175.328 61.864 175.456 62.376C179.728 61.672 181.44 60.408 182.208 58.44H182.784L182.064 59.64C184.128 60.392 187.056 61.624 188.464 62.424L189.36 60.792C188.032 60.088 185.504 59.112 183.584 58.44H188.864ZM206.328 57.128C205.64 57.688 204.648 58.36 203.704 58.872C202.872 58.44 202.04 58.04 201.32 57.704L200.088 58.808C202.104 59.784 204.76 61.336 206.024 62.328L207.368 61.064C206.824 60.664 206.088 60.2 205.256 59.736C206.088 59.288 206.952 58.776 207.704 58.28L206.328 57.128ZM196.424 52.312C197.256 51.928 198.088 51.512 198.856 51.032V51.88H203.16V51.112C203.928 51.576 204.744 51.96 205.544 52.312H196.424ZM198.12 56.216V55.544H203.768V56.216H198.12ZM203.768 54.328H198.12V53.656H203.768V54.328ZM199.496 50.616C199.976 50.28 200.44 49.928 200.872 49.56C201.32 49.912 201.832 50.28 202.344 50.616H199.496ZM200.632 47.256C199.16 49.16 196.296 50.664 193.576 51.448C194.008 51.88 194.504 52.52 194.744 52.968C195.256 52.792 195.736 52.6 196.232 52.392V59.608C196.232 60.328 195.832 60.76 195.496 60.968C195.768 61.256 196.184 61.928 196.312 62.328C196.792 62.104 197.512 61.976 201.784 61.4C201.752 61.016 201.768 60.296 201.816 59.816L198.12 60.216V57.576H205.704V52.376C206.296 52.616 206.856 52.824 207.432 53C207.688 52.552 208.232 51.8 208.664 51.416C206.312 50.856 203.624 49.704 201.992 48.456C202.104 48.328 202.216 48.216 202.328 48.088L200.632 47.256Z" fill="#7F977B"/>
<path d="M179 23.5C175.8 16.7 167 15 163 15V33.5L164.5 34.5L168 32.5L170 33.5L174 31.5V28L179 23.5Z" fill="#E5E5E5"/>
<path d="M162.005 13.326C162.005 11.4548 163.543 9.81978 165.53 10.016C172.002 10.6575 177.997 13.7031 182.332 18.551C183.67 20.0423 183.254 22.256 181.734 23.3573C179.756 24.7923 176.809 26.9285 175.13 28.1485C175.128 28.6948 175.127 29.0498 175.129 29.5135V30.2985C175.129 30.6183 175.059 30.9342 174.924 31.224C174.789 31.5138 174.592 31.7705 174.347 31.9759C174.102 32.1814 173.815 32.3306 173.506 32.4131C173.197 32.4957 172.874 32.5094 172.559 32.4535C172.304 33.486 171.394 34.3623 170.129 34.3623C169.254 34.3623 168.551 33.9435 168.118 33.3435L166.461 34.5398C164.601 35.8823 161.999 34.5535 162 32.2573L162.005 13.326ZM165.346 11.8823C164.585 11.8073 163.879 12.436 163.879 13.326V13.976C170.446 14.2523 176.268 17.4123 180.11 22.2185L180.634 21.8385C181.356 21.3135 181.449 20.3723 180.936 19.801C176.914 15.3035 171.351 12.4782 165.346 11.8835V11.8823ZM163.875 32.2573C163.875 33.0223 164.743 33.466 165.363 33.0173L168.023 31.0998C168.163 30.9989 168.328 30.9388 168.5 30.9259C168.672 30.913 168.845 30.948 168.998 31.0268C169.152 31.1057 169.281 31.2254 169.371 31.3728C169.46 31.5203 169.508 31.6896 169.508 31.8623C169.508 32.1998 169.769 32.4873 170.129 32.4873C170.211 32.4881 170.293 32.4725 170.369 32.4414C170.446 32.4104 170.515 32.3644 170.573 32.3062C170.632 32.2481 170.678 32.1788 170.709 32.1026C170.741 32.0264 170.757 31.9447 170.756 31.8623V30.2973C170.756 30.0486 170.855 29.8102 171.031 29.6344C171.207 29.4586 171.445 29.3598 171.694 29.3598C171.942 29.3598 172.181 29.4586 172.357 29.6344C172.532 29.8102 172.631 30.0486 172.631 30.2973C172.631 30.4723 172.77 30.6098 172.941 30.6098C173.024 30.6098 173.104 30.5769 173.162 30.5182C173.221 30.4596 173.254 30.3802 173.254 30.2973V29.5198C173.252 28.9323 173.251 28.5098 173.26 27.6585C173.261 27.5121 173.297 27.368 173.363 27.2378C173.43 27.1076 173.527 26.9948 173.645 26.9085C174.773 26.0885 176.765 24.6435 178.59 23.321C176.808 21.1038 174.574 19.2913 172.037 18.0038C169.501 16.7163 166.719 15.9833 163.878 15.8535L163.875 32.2573Z" fill="#7F977B"/>
<path d="M162.005 13.326C162.005 11.4548 163.543 9.81978 165.53 10.016C172.002 10.6575 177.997 13.7031 182.332 18.551C183.67 20.0423 183.254 22.256 181.734 23.3573C179.756 24.7923 176.809 26.9285 175.13 28.1485C175.128 28.6948 175.127 29.0498 175.129 29.5135V30.2985C175.129 30.6183 175.059 30.9342 174.924 31.224C174.789 31.5138 174.592 31.7705 174.347 31.9759C174.102 32.1814 173.815 32.3306 173.506 32.4131C173.197 32.4957 172.874 32.5094 172.559 32.4535C172.304 33.486 171.394 34.3623 170.129 34.3623C169.254 34.3623 168.551 33.9435 168.118 33.3435L166.461 34.5398C164.601 35.8823 161.999 34.5535 162 32.2573L162.005 13.326ZM165.346 11.8823C164.585 11.8073 163.879 12.436 163.879 13.326V13.976C170.446 14.2523 176.268 17.4123 180.11 22.2185L180.634 21.8385C181.356 21.3135 181.449 20.3723 180.936 19.801C176.914 15.3035 171.351 12.4782 165.346 11.8835V11.8823ZM163.875 32.2573C163.875 33.0223 164.743 33.466 165.363 33.0173L168.023 31.0998C168.163 30.9989 168.328 30.9388 168.5 30.9259C168.672 30.913 168.845 30.9479 168.998 31.0268C169.152 31.1057 169.281 31.2254 169.371 31.3728C169.46 31.5203 169.508 31.6896 169.508 31.8623C169.508 32.1998 169.769 32.4873 170.129 32.4873C170.211 32.4881 170.293 32.4725 170.369 32.4414C170.446 32.4104 170.515 32.3644 170.573 32.3062C170.632 32.2481 170.678 32.1788 170.709 32.1026C170.741 32.0264 170.757 31.9447 170.756 31.8623V30.2973C170.756 30.0486 170.855 29.8102 171.031 29.6344C171.207 29.4586 171.445 29.3598 171.694 29.3598C171.942 29.3598 172.181 29.4586 172.357 29.6344C172.532 29.8102 172.631 30.0486 172.631 30.2973C172.631 30.4723 172.77 30.6098 172.941 30.6098C173.024 30.6098 173.104 30.5769 173.162 30.5182C173.221 30.4596 173.254 30.3802 173.254 30.2973V29.5198C173.252 28.9323 173.251 28.5098 173.26 27.6585C173.261 27.5121 173.297 27.368 173.363 27.2378C173.43 27.1076 173.527 26.9948 173.645 26.9085C174.773 26.0885 176.765 24.6435 178.59 23.321C176.808 21.1038 174.574 19.2913 172.037 18.0038C169.501 16.7163 166.719 15.9833 163.878 15.8535L163.875 32.2573Z" stroke="#7F977B" stroke-width="0.4"/>
<path d="M167.889 20.8724C167.654 21.1068 167.336 21.2385 167.005 21.2385C166.673 21.2385 166.355 21.1068 166.121 20.8724C165.887 20.638 165.755 20.32 165.755 19.9885C165.755 19.657 165.887 19.3391 166.121 19.1046C166.355 18.8702 166.673 18.7385 167.005 18.7385C167.336 18.7385 167.654 18.8702 167.889 19.1046C168.123 19.3391 168.255 19.657 168.255 19.9885C168.255 20.32 168.123 20.638 167.889 20.8724Z" fill="#7F977B"/>
<path d="M172.889 24.6199C173.123 24.3855 173.255 24.0675 173.255 23.736C173.255 23.4045 173.123 23.0866 172.889 22.8521C172.654 22.6177 172.336 22.486 172.005 22.486C171.673 22.486 171.355 22.6177 171.121 22.8521C170.887 23.0866 170.755 23.4045 170.755 23.736C170.755 24.0675 170.887 24.3855 171.121 24.6199C171.355 24.8543 171.673 24.986 172.005 24.986C172.336 24.986 172.654 24.8543 172.889 24.6199Z" fill="#7F977B"/>
<path d="M167.889 28.3674C167.654 28.6018 167.336 28.7335 167.005 28.7335C166.673 28.7335 166.355 28.6018 166.121 28.3674C165.887 28.133 165.755 27.815 165.755 27.4835C165.755 27.152 165.887 26.8341 166.121 26.5996C166.355 26.3652 166.673 26.2335 167.005 26.2335C167.336 26.2335 167.654 26.3652 167.889 26.5996C168.123 26.8341 168.255 27.152 168.255 27.4835C168.255 27.815 168.123 28.133 167.889 28.3674Z" fill="#7F977B"/>
<rect x="0.665" y="0.665" width="343.67" height="74.67" rx="5.335" stroke="#E5E5E5" stroke-width="1.33"/>
</svg>
