<svg width="345" height="76" viewBox="0 0 345 76" fill="none" xmlns="http://www.w3.org/2000/svg">
<rect x="0.665" y="0.665" width="343.67" height="74.67" rx="5.335" fill="white"/>
<path d="M140.912 48.056L140.64 48.136H137.216V62.392H138.864V49.832H140.08C139.856 50.92 139.552 52.312 139.264 53.32C140.08 54.472 140.24 55.544 140.24 56.312C140.24 56.792 140.16 57.16 140 57.304C139.888 57.4 139.744 57.448 139.584 57.448C139.424 57.448 139.248 57.448 138.992 57.432C139.264 57.896 139.376 58.6 139.392 59.064C139.712 59.08 140.064 59.08 140.336 59.032C140.688 58.984 140.992 58.872 141.216 58.68C141.696 58.296 141.904 57.608 141.904 56.552C141.904 55.592 141.712 54.44 140.832 53.128C141.248 51.864 141.76 50.168 142.128 48.76L140.912 48.056ZM144.24 47.48C143.616 49.656 142.496 51.816 141.232 53.208C141.568 53.576 142.128 54.456 142.336 54.856C142.576 54.584 142.816 54.28 143.04 53.96V62.328H144.704V51.096C145.184 50.088 145.6 49 145.936 47.944L144.24 47.48ZM145.232 54.456C145.728 55.56 146.336 57.048 146.608 58.008L148.128 57.272C147.84 56.328 147.232 54.904 146.688 53.8L145.232 54.456ZM151.552 50.936H150.384V47.768H148.56V50.936H145.264V52.696H148.56V60.152C148.56 60.392 148.48 60.456 148.24 60.472C148.016 60.472 147.328 60.472 146.624 60.456C146.864 60.984 147.152 61.816 147.2 62.344C148.336 62.344 149.136 62.264 149.664 61.96C150.208 61.64 150.384 61.112 150.384 60.168V52.696H151.552V50.936ZM165.72 53.72V59.752H167.672V53.72H170.184V51.96H163.512V50.008C165.784 49.88 168.216 49.576 170.024 49L168.472 47.608C166.856 48.104 164.072 48.392 161.576 48.488V51.944C161.576 53.896 161.448 56.584 160.088 58.472C160.552 58.68 161.384 59.272 161.736 59.624C162.888 58.024 163.32 55.736 163.448 53.72H165.72ZM159.72 49.832C159.24 49.208 158.328 48.2 157.56 47.448L156.136 48.312C156.888 49.112 157.816 50.216 158.28 50.904L159.72 49.832ZM159.368 54.984L159.08 55.032H157.864C158.728 53.944 159.752 52.488 160.376 51.608L159.208 51.08L159.032 51.16H155.736V52.68H157.8C157.208 53.528 156.536 54.408 156.232 54.696C155.944 55.016 155.672 55.144 155.416 55.208C155.576 55.544 155.928 56.36 156.024 56.744C156.152 56.616 156.616 56.504 157 56.504H158.392C157.864 58.68 156.808 60.248 155.32 61.128C155.672 61.368 156.28 62.04 156.52 62.408C157.336 61.88 158.024 61.16 158.616 60.216C159.848 61.816 161.672 62.12 164.568 62.12C166.44 62.12 168.472 62.088 170.12 61.976C170.216 61.464 170.456 60.6 170.728 60.216C168.92 60.392 166.312 60.488 164.616 60.488C162.088 60.472 160.328 60.28 159.352 58.776C159.768 57.784 160.088 56.632 160.296 55.32L159.368 54.984ZM179.408 49.256C178.72 48.808 177.328 48.104 176.432 47.656L175.36 49.032C176.288 49.56 177.648 50.312 178.272 50.792L179.408 49.256ZM178.64 53.576C177.936 53.144 176.512 52.456 175.632 52.024L174.608 53.432C175.552 53.944 176.928 54.696 177.584 55.16L178.64 53.576ZM176.432 62.216C177.408 60.664 178.416 58.84 179.264 57.16L177.872 55.88C176.912 57.736 175.68 59.72 174.832 60.92L176.432 62.216ZM186.816 60.008H182.016V57.656H186.816V60.008ZM189.424 53.912V52.088H185.36V49.896C186.608 49.656 187.808 49.336 188.832 48.952L187.376 47.448C185.616 48.152 182.608 48.68 179.888 48.952C180.112 49.384 180.368 50.12 180.448 50.584C181.44 50.488 182.512 50.376 183.552 50.216V52.088H179.296V53.912H183.552V55.928H180.288V62.392H182.016V61.736H186.816V62.312H188.624V55.928H185.36V53.912H189.424ZM198.504 59.08H201.4V57.736H198.504V57.112H201.336V52.168H198.504V51.544H201.576V52.792H203.032C202.92 55.656 202.536 57.944 201.288 59.672C200.36 59.752 199.416 59.832 198.504 59.896V59.08ZM195.528 55.928V55.208H196.776V55.928H195.528ZM199.752 55.208V55.928H198.504V55.208H199.752ZM198.504 54.072V53.368H199.752V54.072H198.504ZM195.528 53.368H196.776V54.072H195.528V53.368ZM204.888 51.048C204.92 49.992 204.92 48.872 204.92 47.704H203.096C203.096 48.888 203.096 49.992 203.08 51.048H201.576V50.168H198.504V49.384C199.544 49.272 200.536 49.128 201.384 48.952L200.552 47.528C198.792 47.912 196.024 48.184 193.656 48.312C193.832 48.68 194.008 49.272 194.072 49.656C194.936 49.64 195.848 49.592 196.776 49.528V50.168H193.624V51.544H196.776V52.168H194.024V57.112H196.776V57.736H193.96V59.08H196.776V60.04C195.544 60.12 194.424 60.2 193.528 60.264L193.752 61.864C195.48 61.72 197.784 61.48 200.088 61.24C200.504 61.592 200.968 62.12 201.208 62.504C203.896 60.376 204.632 57.08 204.84 52.792H206.28C206.184 57.96 206.024 59.912 205.688 60.344C205.544 60.552 205.384 60.616 205.144 60.616C204.84 60.616 204.232 60.6 203.528 60.536C203.848 61.064 204.056 61.832 204.088 62.36C204.856 62.376 205.592 62.392 206.072 62.296C206.6 62.184 206.968 62.024 207.336 61.496C207.848 60.76 207.976 58.44 208.12 51.896C208.12 51.672 208.136 51.048 208.136 51.048H204.888Z" fill="#7F977B"/>
<rect x="163" y="15" width="18" height="4" fill="#E5E5E5"/>
<path d="M181 13.5H179.75V11.8C179.75 11.3582 179.392 11 178.95 11H178.05C177.608 11 177.25 11.3582 177.25 11.8V13.5H167.25V11.8C167.25 11.3582 166.892 11 166.45 11H165.55C165.108 11 164.75 11.3582 164.75 11.8V13.5H163.5C162.125 13.5 161 14.625 161 16V33.5C161 34.875 162.125 36 163.5 36H181C182.375 36 183.5 34.875 183.5 33.5V16C183.5 14.625 182.375 13.5 181 13.5ZM181 33.5H163.5V21H181V33.5ZM163.5 18.5V16H181V18.5H163.5ZM166 24.3C166 23.8582 166.358 23.5 166.8 23.5H177.7C178.142 23.5 178.5 23.8582 178.5 24.3V25.2C178.5 25.6418 178.142 26 177.7 26H166.8C166.358 26 166 25.6418 166 25.2V24.3ZM166 29.3C166 28.8582 166.358 28.5 166.8 28.5H173.95C174.392 28.5 174.75 28.8582 174.75 29.3V30.2C174.75 30.6418 174.392 31 173.95 31H166.8C166.358 31 166 30.6418 166 30.2V29.3Z" fill="#7F977B"/>
<rect x="0.665" y="0.665" width="343.67" height="74.67" rx="5.335" stroke="#E5E5E5" stroke-width="1.33"/>
</svg>
