<svg width="345" height="76" viewBox="0 0 345 76" fill="none" xmlns="http://www.w3.org/2000/svg">
<rect x="0.665" y="0.665" width="343.67" height="74.67" rx="5.335" fill="white"/>
<path d="M140.912 48.056L140.64 48.136H137.216V62.392H138.864V49.832H140.08C139.856 50.92 139.552 52.312 139.264 53.32C140.08 54.472 140.24 55.544 140.24 56.312C140.24 56.792 140.16 57.16 140 57.304C139.888 57.4 139.744 57.448 139.584 57.448C139.424 57.448 139.248 57.448 138.992 57.432C139.264 57.896 139.376 58.6 139.392 59.064C139.712 59.08 140.064 59.08 140.336 59.032C140.688 58.984 140.992 58.872 141.216 58.68C141.696 58.296 141.904 57.608 141.904 56.552C141.904 55.592 141.712 54.44 140.832 53.128C141.248 51.864 141.76 50.168 142.128 48.76L140.912 48.056ZM144.24 47.48C143.616 49.656 142.496 51.816 141.232 53.208C141.568 53.576 142.128 54.456 142.336 54.856C142.576 54.584 142.816 54.28 143.04 53.96V62.328H144.704V51.096C145.184 50.088 145.6 49 145.936 47.944L144.24 47.48ZM145.232 54.456C145.728 55.56 146.336 57.048 146.608 58.008L148.128 57.272C147.84 56.328 147.232 54.904 146.688 53.8L145.232 54.456ZM151.552 50.936H150.384V47.768H148.56V50.936H145.264V52.696H148.56V60.152C148.56 60.392 148.48 60.456 148.24 60.472C148.016 60.472 147.328 60.472 146.624 60.456C146.864 60.984 147.152 61.816 147.2 62.344C148.336 62.344 149.136 62.264 149.664 61.96C150.208 61.64 150.384 61.112 150.384 60.168V52.696H151.552V50.936ZM165.72 53.72V59.752H167.672V53.72H170.184V51.96H163.512V50.008C165.784 49.88 168.216 49.576 170.024 49L168.472 47.608C166.856 48.104 164.072 48.392 161.576 48.488V51.944C161.576 53.896 161.448 56.584 160.088 58.472C160.552 58.68 161.384 59.272 161.736 59.624C162.888 58.024 163.32 55.736 163.448 53.72H165.72ZM159.72 49.832C159.24 49.208 158.328 48.2 157.56 47.448L156.136 48.312C156.888 49.112 157.816 50.216 158.28 50.904L159.72 49.832ZM159.368 54.984L159.08 55.032H157.864C158.728 53.944 159.752 52.488 160.376 51.608L159.208 51.08L159.032 51.16H155.736V52.68H157.8C157.208 53.528 156.536 54.408 156.232 54.696C155.944 55.016 155.672 55.144 155.416 55.208C155.576 55.544 155.928 56.36 156.024 56.744C156.152 56.616 156.616 56.504 157 56.504H158.392C157.864 58.68 156.808 60.248 155.32 61.128C155.672 61.368 156.28 62.04 156.52 62.408C157.336 61.88 158.024 61.16 158.616 60.216C159.848 61.816 161.672 62.12 164.568 62.12C166.44 62.12 168.472 62.088 170.12 61.976C170.216 61.464 170.456 60.6 170.728 60.216C168.92 60.392 166.312 60.488 164.616 60.488C162.088 60.472 160.328 60.28 159.352 58.776C159.768 57.784 160.088 56.632 160.296 55.32L159.368 54.984ZM178.368 50.872H185.504V51.56H178.368V50.872ZM178.368 49.112H185.504V49.768H178.368V49.112ZM189.008 53.4H182.992C182.88 53.176 182.736 52.952 182.592 52.744H187.408V47.944H176.544V52.744H181.424L180.688 52.968C180.784 53.096 180.88 53.24 180.96 53.4H174.896V54.904H189.008V53.4ZM178.32 59.128C177.456 59.816 175.904 60.456 174.496 60.856C174.912 61.16 175.584 61.816 175.888 62.184C177.28 61.64 178.992 60.744 180.064 59.832L178.32 59.128ZM178.752 56.776H185.248V57.672H178.752V56.776ZM187.168 58.968V55.48H176.928V58.968H181.072V60.68C181.072 60.856 180.992 60.904 180.768 60.92C180.56 60.936 179.712 60.936 179.056 60.904C179.28 61.32 179.488 61.896 179.584 62.36C180.704 62.36 181.536 62.36 182.16 62.152C182.784 61.944 182.976 61.576 182.976 60.76V58.968H187.168ZM183.664 60.2C185.04 60.744 186.864 61.608 187.76 62.2L189.088 61.032C188.096 60.424 186.24 59.624 184.896 59.176L183.664 60.2ZM195.512 50.008C195.736 50.712 195.896 51.608 195.928 52.232L196.76 51.96C196.712 51.352 196.504 50.392 196.264 49.672L195.512 49.896V49.224H196.856V52.696H195.512V50.008ZM199.384 49.928L198.616 49.656C198.504 50.28 198.232 51.224 198.008 51.848V49.224H199.384V49.928ZM198.008 52.696V51.992L198.68 52.248C198.888 51.8 199.128 51.096 199.384 50.44V52.696H198.008ZM201.048 56.904H198.264V56.104H200.824V54.664H198.264V53.976H200.856V47.944H194.088V53.976H196.584V54.664H194.12V56.104H196.584V56.904H193.8V58.344H201.048V56.904ZM194.744 62.152C195.192 61.384 195.48 60.168 195.688 59.192L194.424 58.728C194.248 59.672 193.864 60.872 193.416 61.608L194.744 62.152ZM195.976 59.192C196.104 60.072 196.168 61.224 196.136 61.992L197.352 61.848C197.368 61.08 197.288 59.944 197.128 59.064L195.976 59.192ZM197.592 59.16C197.88 60.008 198.152 61.112 198.216 61.832L199.384 61.592C199.304 60.872 199.016 59.784 198.728 58.952L197.592 59.16ZM206.104 60.04H203.144V56.696H206.104V60.04ZM208.472 52.52V50.76H205.368V47.48H203.512V54.968H201.416V61.112C201.224 60.424 200.776 59.448 200.312 58.728L199.192 59.128C199.64 59.928 200.088 61 200.248 61.72L201.416 61.256V62.376H203.144V61.768H206.104V62.328H207.928V54.968H205.368V52.52H208.472Z" fill="#7F977B"/>
<path d="M161 27.5L158.5 34.5H185.5L183 27.5C181.167 28.8334 176.5 30.7 172.5 27.5C168.5 24.3 163.167 26.1667 161 27.5Z" fill="#E5E5E5"/>
<path d="M167 12L172.333 22L179 15.75L185.667 34.5H159L167 12Z" stroke="#7F977B" stroke-width="2.5" stroke-linecap="round" stroke-linejoin="round"/>
<path d="M161.853 27.1C165.347 25.1375 168.84 25.3125 172.333 27.625C175.987 30.05 179.653 30.125 183.307 27.8625" stroke="#7F977B" stroke-width="2.5" stroke-linecap="round" stroke-linejoin="round"/>
<rect x="0.665" y="0.665" width="343.67" height="74.67" rx="5.335" stroke="#E5E5E5" stroke-width="1.33"/>
</svg>
