<svg width="160" height="110" viewBox="0 0 160 110" fill="none" xmlns="http://www.w3.org/2000/svg">
<path d="M0 6C0 2.68629 2.68629 0 6 0H154C157.314 0 160 2.68629 160 6V104C160 107.314 157.314 110 154 110H6C2.6863 110 0 107.314 0 104V6Z" fill="white"/>
<path d="M47.912 65.056L47.64 65.136H44.216V79.392H45.864V66.832H47.08C46.856 67.92 46.552 69.312 46.264 70.32C47.08 71.472 47.24 72.544 47.24 73.312C47.24 73.792 47.16 74.16 47 74.304C46.888 74.4 46.744 74.448 46.584 74.448C46.424 74.448 46.248 74.448 45.992 74.432C46.264 74.896 46.376 75.6 46.392 76.064C46.712 76.08 47.064 76.08 47.336 76.032C47.688 75.984 47.992 75.872 48.216 75.68C48.696 75.296 48.904 74.608 48.904 73.552C48.904 72.592 48.712 71.44 47.832 70.128C48.248 68.864 48.76 67.168 49.128 65.76L47.912 65.056ZM51.24 64.48C50.616 66.656 49.496 68.816 48.232 70.208C48.568 70.576 49.128 71.456 49.336 71.856C49.576 71.584 49.816 71.28 50.04 70.96V79.328H51.704V68.096C52.184 67.088 52.6 66 52.936 64.944L51.24 64.48ZM52.232 71.456C52.728 72.56 53.336 74.048 53.608 75.008L55.128 74.272C54.84 73.328 54.232 71.904 53.688 70.8L52.232 71.456ZM58.552 67.936H57.384V64.768H55.56V67.936H52.264V69.696H55.56V77.152C55.56 77.392 55.48 77.456 55.24 77.472C55.016 77.472 54.328 77.472 53.624 77.456C53.864 77.984 54.152 78.816 54.2 79.344C55.336 79.344 56.136 79.264 56.664 78.96C57.208 78.64 57.384 78.112 57.384 77.168V69.696H58.552V67.936ZM72.72 70.72V76.752H74.672V70.72H77.184V68.96H70.512V67.008C72.784 66.88 75.216 66.576 77.024 66L75.472 64.608C73.856 65.104 71.072 65.392 68.576 65.488V68.944C68.576 70.896 68.448 73.584 67.088 75.472C67.552 75.68 68.384 76.272 68.736 76.624C69.888 75.024 70.32 72.736 70.448 70.72H72.72ZM66.72 66.832C66.24 66.208 65.328 65.2 64.56 64.448L63.136 65.312C63.888 66.112 64.816 67.216 65.28 67.904L66.72 66.832ZM66.368 71.984L66.08 72.032H64.864C65.728 70.944 66.752 69.488 67.376 68.608L66.208 68.08L66.032 68.16H62.736V69.68H64.8C64.208 70.528 63.536 71.408 63.232 71.696C62.944 72.016 62.672 72.144 62.416 72.208C62.576 72.544 62.928 73.36 63.024 73.744C63.152 73.616 63.616 73.504 64 73.504H65.392C64.864 75.68 63.808 77.248 62.32 78.128C62.672 78.368 63.28 79.04 63.52 79.408C64.336 78.88 65.024 78.16 65.616 77.216C66.848 78.816 68.672 79.12 71.568 79.12C73.44 79.12 75.472 79.088 77.12 78.976C77.216 78.464 77.456 77.6 77.728 77.216C75.92 77.392 73.312 77.488 71.616 77.488C69.088 77.472 67.328 77.28 66.352 75.776C66.768 74.784 67.088 73.632 67.296 72.32L66.368 71.984ZM95.864 75.44V73.824H89.624C89.672 73.552 89.72 73.28 89.752 72.992H96.328V71.344H89.96V70.496H94.856V68.896H89.96V68.08H95.624V66.4H92.552C92.904 65.936 93.272 65.408 93.624 64.848L91.576 64.32C91.32 64.944 90.84 65.776 90.44 66.4H86.92L87.384 66.192C87.176 65.648 86.68 64.88 86.184 64.32L84.488 64.992C84.808 65.408 85.144 65.92 85.384 66.4H82.344V68.08H87.992V68.896H83.256V70.496H87.992V71.344H81.848V72.992H87.736C87.704 73.28 87.656 73.568 87.608 73.824H82.216V75.44H86.984C86.232 76.512 84.728 77.232 81.512 77.664C81.88 78.064 82.328 78.864 82.456 79.376C86.728 78.672 88.44 77.408 89.208 75.44H89.784L89.064 76.64C91.128 77.392 94.056 78.624 95.464 79.424L96.36 77.792C95.032 77.088 92.504 76.112 90.584 75.44H95.864ZM113.328 74.128C112.64 74.688 111.648 75.36 110.704 75.872C109.872 75.44 109.04 75.04 108.32 74.704L107.088 75.808C109.104 76.784 111.76 78.336 113.024 79.328L114.368 78.064C113.824 77.664 113.088 77.2 112.256 76.736C113.088 76.288 113.952 75.776 114.704 75.28L113.328 74.128ZM103.424 69.312C104.256 68.928 105.088 68.512 105.856 68.032V68.88H110.16V68.112C110.928 68.576 111.744 68.96 112.544 69.312H103.424ZM105.12 73.216V72.544H110.768V73.216H105.12ZM110.768 71.328H105.12V70.656H110.768V71.328ZM106.496 67.616C106.976 67.28 107.44 66.928 107.872 66.56C108.32 66.912 108.832 67.28 109.344 67.616H106.496ZM107.632 64.256C106.16 66.16 103.296 67.664 100.576 68.448C101.008 68.88 101.504 69.52 101.744 69.968C102.256 69.792 102.736 69.6 103.232 69.392V76.608C103.232 77.328 102.832 77.76 102.496 77.968C102.768 78.256 103.184 78.928 103.312 79.328C103.792 79.104 104.512 78.976 108.784 78.4C108.752 78.016 108.768 77.296 108.816 76.816L105.12 77.216V74.576H112.704V69.376C113.296 69.616 113.856 69.824 114.432 70C114.688 69.552 115.232 68.8 115.664 68.416C113.312 67.856 110.624 66.704 108.992 65.456C109.104 65.328 109.216 65.216 109.328 65.088L107.632 64.256Z" fill="#7F977B"/>
<path d="M86 40.5C82.8 33.7 74 32 70 32V50.5L71.5 51.5L75 49.5L77 50.5L81 48.5V45L86 40.5Z" fill="#E0DA48"/>
<path d="M69.005 30.326C69.005 28.4548 70.5425 26.8198 72.53 27.016C79.0017 27.6575 84.9975 30.7031 89.3325 35.551C90.67 37.0423 90.2538 39.256 88.7338 40.3573C86.7563 41.7923 83.8088 43.9285 82.13 45.1485C82.1275 45.6948 82.1275 46.0498 82.1287 46.5135V47.2985C82.1289 47.6183 82.059 47.9342 81.9239 48.224C81.7888 48.5138 81.5918 48.7705 81.3468 48.9759C81.1018 49.1814 80.8147 49.3306 80.5058 49.4131C80.1968 49.4957 79.8736 49.5094 79.5588 49.4535C79.3038 50.486 78.3938 51.3623 77.1287 51.3623C76.2537 51.3623 75.5513 50.9435 75.1175 50.3435L73.4613 51.5398C71.6013 52.8823 68.9988 51.5535 69 49.2573L69.005 30.326ZM72.3463 28.8823C71.585 28.8073 70.8788 29.436 70.8788 30.326V30.976C77.4463 31.2523 83.2675 34.4123 87.11 39.2185L87.6338 38.8385C88.3563 38.3135 88.4488 37.3723 87.9363 36.801C83.9138 32.3035 78.3508 29.4782 72.3463 28.8835V28.8823ZM70.875 49.2573C70.875 50.0223 71.7425 50.466 72.3625 50.0173L75.0225 48.0998C75.1627 47.9989 75.3279 47.9388 75.5001 47.9259C75.6723 47.913 75.8446 47.948 75.9982 48.0268C76.1518 48.1057 76.2806 48.2254 76.3705 48.3728C76.4604 48.5203 76.5078 48.6896 76.5075 48.8623C76.5075 49.1998 76.7687 49.4873 77.1287 49.4873C77.2112 49.4881 77.2929 49.4725 77.3693 49.4414C77.4456 49.4104 77.515 49.3644 77.5734 49.3062C77.6318 49.2481 77.6781 49.1788 77.7095 49.1026C77.7408 49.0264 77.7568 48.9447 77.7563 48.8623V47.2973C77.7563 47.0486 77.855 46.8102 78.0308 46.6344C78.2067 46.4586 78.4451 46.3598 78.6938 46.3598C78.9424 46.3598 79.1808 46.4586 79.3567 46.6344C79.5325 46.8102 79.6313 47.0486 79.6313 47.2973C79.6313 47.4723 79.77 47.6098 79.9412 47.6098C80.0241 47.6098 80.1036 47.5769 80.1622 47.5182C80.2208 47.4596 80.2537 47.3802 80.2537 47.2973V46.5198C80.2525 45.9323 80.2513 45.5098 80.26 44.6585C80.2612 44.5121 80.2966 44.368 80.3634 44.2378C80.4303 44.1076 80.5267 43.9948 80.645 43.9085C81.7725 43.0885 83.765 41.6435 85.59 40.321C83.8078 38.1038 81.5741 36.2913 79.0375 35.0038C76.5008 33.7163 73.7192 32.9833 70.8775 32.8535L70.875 49.2573Z" fill="#7F977B"/>
<path d="M69.005 30.326C69.005 28.4548 70.5425 26.8198 72.53 27.016C79.0017 27.6575 84.9975 30.7031 89.3325 35.551C90.67 37.0423 90.2538 39.256 88.7338 40.3573C86.7563 41.7923 83.8088 43.9285 82.13 45.1485C82.1275 45.6948 82.1275 46.0498 82.1287 46.5135V47.2985C82.1289 47.6183 82.059 47.9342 81.9239 48.224C81.7888 48.5138 81.5918 48.7705 81.3468 48.9759C81.1018 49.1814 80.8147 49.3306 80.5058 49.4131C80.1968 49.4957 79.8736 49.5094 79.5588 49.4535C79.3038 50.486 78.3937 51.3623 77.1287 51.3623C76.2537 51.3623 75.5513 50.9435 75.1175 50.3435L73.4613 51.5398C71.6013 52.8823 68.9988 51.5535 69 49.2573L69.005 30.326ZM72.3463 28.8823C71.585 28.8073 70.8788 29.436 70.8788 30.326V30.976C77.4463 31.2523 83.2675 34.4123 87.11 39.2185L87.6338 38.8385C88.3563 38.3135 88.4488 37.3723 87.9363 36.801C83.9138 32.3035 78.3508 29.4782 72.3463 28.8835V28.8823ZM70.875 49.2573C70.875 50.0223 71.7425 50.466 72.3625 50.0173L75.0225 48.0998C75.1627 47.9989 75.3279 47.9388 75.5001 47.9259C75.6723 47.913 75.8446 47.9479 75.9982 48.0268C76.1518 48.1057 76.2806 48.2254 76.3705 48.3728C76.4604 48.5203 76.5078 48.6896 76.5075 48.8623C76.5075 49.1998 76.7687 49.4873 77.1287 49.4873C77.2112 49.4881 77.2929 49.4725 77.3693 49.4414C77.4456 49.4104 77.515 49.3644 77.5734 49.3062C77.6318 49.2481 77.6781 49.1788 77.7095 49.1026C77.7408 49.0264 77.7568 48.9447 77.7563 48.8623V47.2973C77.7563 47.0486 77.855 46.8102 78.0308 46.6344C78.2067 46.4586 78.4451 46.3598 78.6938 46.3598C78.9424 46.3598 79.1808 46.4586 79.3567 46.6344C79.5325 46.8102 79.6313 47.0486 79.6313 47.2973C79.6313 47.4723 79.77 47.6098 79.9412 47.6098C80.0241 47.6098 80.1036 47.5769 80.1622 47.5182C80.2208 47.4596 80.2537 47.3802 80.2537 47.2973V46.5198C80.2525 45.9323 80.2513 45.5098 80.26 44.6585C80.2612 44.5121 80.2966 44.368 80.3634 44.2378C80.4303 44.1076 80.5267 43.9948 80.645 43.9085C81.7725 43.0885 83.765 41.6435 85.59 40.321C83.8078 38.1038 81.5741 36.2913 79.0375 35.0038C76.5008 33.7163 73.7192 32.9833 70.8775 32.8535L70.875 49.2573Z" stroke="#7F977B" stroke-width="0.4"/>
<path d="M74.8888 37.8724C74.6543 38.1068 74.3364 38.2385 74.0049 38.2385C73.6734 38.2385 73.3554 38.1068 73.121 37.8724C72.8866 37.638 72.7549 37.32 72.7549 36.9885C72.7549 36.657 72.8866 36.3391 73.121 36.1046C73.3554 35.8702 73.6734 35.7385 74.0049 35.7385C74.3364 35.7385 74.6543 35.8702 74.8888 36.1046C75.1232 36.3391 75.2549 36.657 75.2549 36.9885C75.2549 37.32 75.1232 37.638 74.8888 37.8724Z" fill="#7F977B"/>
<path d="M79.8888 41.6199C80.1232 41.3855 80.2549 41.0675 80.2549 40.736C80.2549 40.4045 80.1232 40.0866 79.8888 39.8521C79.6543 39.6177 79.3364 39.486 79.0049 39.486C78.6734 39.486 78.3554 39.6177 78.121 39.8521C77.8866 40.0866 77.7549 40.4045 77.7549 40.736C77.7549 41.0675 77.8866 41.3855 78.121 41.6199C78.3554 41.8543 78.6734 41.986 79.0049 41.986C79.3364 41.986 79.6543 41.8543 79.8888 41.6199Z" fill="#7F977B"/>
<path d="M74.8888 45.3674C74.6543 45.6018 74.3364 45.7335 74.0049 45.7335C73.6734 45.7335 73.3554 45.6018 73.121 45.3674C72.8866 45.133 72.7549 44.815 72.7549 44.4835C72.7549 44.152 72.8866 43.8341 73.121 43.5996C73.3554 43.3652 73.6734 43.2335 74.0049 43.2335C74.3364 43.2335 74.6543 43.3652 74.8888 43.5996C75.1232 43.8341 75.2549 44.152 75.2549 44.4835C75.2549 44.815 75.1232 45.133 74.8888 45.3674Z" fill="#7F977B"/>
<path d="M6 1.33H154V-1.33H6V1.33ZM158.67 6V104H161.33V6H158.67ZM154 108.67H6V111.33H154V108.67ZM1.33 104V6H-1.33V104H1.33ZM6 108.67C3.42083 108.67 1.33 106.579 1.33 104H-1.33C-1.33 108.048 1.95176 111.33 6 111.33V108.67ZM158.67 104C158.67 106.579 156.579 108.67 154 108.67V111.33C158.048 111.33 161.33 108.048 161.33 104H158.67ZM154 1.33C156.579 1.33 158.67 3.42083 158.67 6H161.33C161.33 1.95175 158.048 -1.33 154 -1.33V1.33ZM6 -1.33C1.95175 -1.33 -1.33 1.95175 -1.33 6H1.33C1.33 3.42083 3.42083 1.33 6 1.33V-1.33Z" fill="#7F977B"/>
</svg>
