<svg width="160" height="110" viewBox="0 0 160 110" fill="none" xmlns="http://www.w3.org/2000/svg">
<path d="M0 6C0 2.68629 2.68629 0 6 0H154C157.314 0 160 2.68629 160 6V104C160 107.314 157.314 110 154 110H6C2.6863 110 0 107.314 0 104V6Z" fill="white"/>
<path d="M47.912 65.056L47.64 65.136H44.216V79.392H45.864V66.832H47.08C46.856 67.92 46.552 69.312 46.264 70.32C47.08 71.472 47.24 72.544 47.24 73.312C47.24 73.792 47.16 74.16 47 74.304C46.888 74.4 46.744 74.448 46.584 74.448C46.424 74.448 46.248 74.448 45.992 74.432C46.264 74.896 46.376 75.6 46.392 76.064C46.712 76.08 47.064 76.08 47.336 76.032C47.688 75.984 47.992 75.872 48.216 75.68C48.696 75.296 48.904 74.608 48.904 73.552C48.904 72.592 48.712 71.44 47.832 70.128C48.248 68.864 48.76 67.168 49.128 65.76L47.912 65.056ZM51.24 64.48C50.616 66.656 49.496 68.816 48.232 70.208C48.568 70.576 49.128 71.456 49.336 71.856C49.576 71.584 49.816 71.28 50.04 70.96V79.328H51.704V68.096C52.184 67.088 52.6 66 52.936 64.944L51.24 64.48ZM52.232 71.456C52.728 72.56 53.336 74.048 53.608 75.008L55.128 74.272C54.84 73.328 54.232 71.904 53.688 70.8L52.232 71.456ZM58.552 67.936H57.384V64.768H55.56V67.936H52.264V69.696H55.56V77.152C55.56 77.392 55.48 77.456 55.24 77.472C55.016 77.472 54.328 77.472 53.624 77.456C53.864 77.984 54.152 78.816 54.2 79.344C55.336 79.344 56.136 79.264 56.664 78.96C57.208 78.64 57.384 78.112 57.384 77.168V69.696H58.552V67.936ZM72.72 70.72V76.752H74.672V70.72H77.184V68.96H70.512V67.008C72.784 66.88 75.216 66.576 77.024 66L75.472 64.608C73.856 65.104 71.072 65.392 68.576 65.488V68.944C68.576 70.896 68.448 73.584 67.088 75.472C67.552 75.68 68.384 76.272 68.736 76.624C69.888 75.024 70.32 72.736 70.448 70.72H72.72ZM66.72 66.832C66.24 66.208 65.328 65.2 64.56 64.448L63.136 65.312C63.888 66.112 64.816 67.216 65.28 67.904L66.72 66.832ZM66.368 71.984L66.08 72.032H64.864C65.728 70.944 66.752 69.488 67.376 68.608L66.208 68.08L66.032 68.16H62.736V69.68H64.8C64.208 70.528 63.536 71.408 63.232 71.696C62.944 72.016 62.672 72.144 62.416 72.208C62.576 72.544 62.928 73.36 63.024 73.744C63.152 73.616 63.616 73.504 64 73.504H65.392C64.864 75.68 63.808 77.248 62.32 78.128C62.672 78.368 63.28 79.04 63.52 79.408C64.336 78.88 65.024 78.16 65.616 77.216C66.848 78.816 68.672 79.12 71.568 79.12C73.44 79.12 75.472 79.088 77.12 78.976C77.216 78.464 77.456 77.6 77.728 77.216C75.92 77.392 73.312 77.488 71.616 77.488C69.088 77.472 67.328 77.28 66.352 75.776C66.768 74.784 67.088 73.632 67.296 72.32L66.368 71.984ZM86.408 66.256C85.72 65.808 84.328 65.104 83.432 64.656L82.36 66.032C83.288 66.56 84.648 67.312 85.272 67.792L86.408 66.256ZM85.64 70.576C84.936 70.144 83.512 69.456 82.632 69.024L81.608 70.432C82.552 70.944 83.928 71.696 84.584 72.16L85.64 70.576ZM83.432 79.216C84.408 77.664 85.416 75.84 86.264 74.16L84.872 72.88C83.912 74.736 82.68 76.72 81.832 77.92L83.432 79.216ZM93.816 77.008H89.016V74.656H93.816V77.008ZM96.424 70.912V69.088H92.36V66.896C93.608 66.656 94.808 66.336 95.832 65.952L94.376 64.448C92.616 65.152 89.608 65.68 86.888 65.952C87.112 66.384 87.368 67.12 87.448 67.584C88.44 67.488 89.512 67.376 90.552 67.216V69.088H86.296V70.912H90.552V72.928H87.288V79.392H89.016V78.736H93.816V79.312H95.624V72.928H92.36V70.912H96.424ZM105.504 76.08H108.4V74.736H105.504V74.112H108.336V69.168H105.504V68.544H108.576V69.792H110.032C109.92 72.656 109.536 74.944 108.288 76.672C107.36 76.752 106.416 76.832 105.504 76.896V76.08ZM102.528 72.928V72.208H103.776V72.928H102.528ZM106.752 72.208V72.928H105.504V72.208H106.752ZM105.504 71.072V70.368H106.752V71.072H105.504ZM102.528 70.368H103.776V71.072H102.528V70.368ZM111.888 68.048C111.92 66.992 111.92 65.872 111.92 64.704H110.096C110.096 65.888 110.096 66.992 110.08 68.048H108.576V67.168H105.504V66.384C106.544 66.272 107.536 66.128 108.384 65.952L107.552 64.528C105.792 64.912 103.024 65.184 100.656 65.312C100.832 65.68 101.008 66.272 101.072 66.656C101.936 66.64 102.848 66.592 103.776 66.528V67.168H100.624V68.544H103.776V69.168H101.024V74.112H103.776V74.736H100.96V76.08H103.776V77.04C102.544 77.12 101.424 77.2 100.528 77.264L100.752 78.864C102.48 78.72 104.784 78.48 107.088 78.24C107.504 78.592 107.968 79.12 108.208 79.504C110.896 77.376 111.632 74.08 111.84 69.792H113.28C113.184 74.96 113.024 76.912 112.688 77.344C112.544 77.552 112.384 77.616 112.144 77.616C111.84 77.616 111.232 77.6 110.528 77.536C110.848 78.064 111.056 78.832 111.088 79.36C111.856 79.376 112.592 79.392 113.072 79.296C113.6 79.184 113.968 79.024 114.336 78.496C114.848 77.76 114.976 75.44 115.12 68.896C115.12 68.672 115.136 68.048 115.136 68.048H111.888Z" fill="#7F977B"/>
<rect x="70" y="32" width="18" height="4" fill="#E0DA48"/>
<path d="M88 30.5H86.75V28.8C86.75 28.3582 86.3918 28 85.95 28H85.05C84.6082 28 84.25 28.3582 84.25 28.8V30.5H74.25V28.8C74.25 28.3582 73.8918 28 73.45 28H72.55C72.1082 28 71.75 28.3582 71.75 28.8V30.5H70.5C69.125 30.5 68 31.625 68 33V50.5C68 51.875 69.125 53 70.5 53H88C89.375 53 90.5 51.875 90.5 50.5V33C90.5 31.625 89.375 30.5 88 30.5ZM88 50.5H70.5V38H88V50.5ZM70.5 35.5V33H88V35.5H70.5ZM73 41.3C73 40.8582 73.3582 40.5 73.8 40.5H84.7C85.1418 40.5 85.5 40.8582 85.5 41.3V42.2C85.5 42.6418 85.1418 43 84.7 43H73.8C73.3582 43 73 42.6418 73 42.2V41.3ZM73 46.3C73 45.8582 73.3582 45.5 73.8 45.5H80.95C81.3918 45.5 81.75 45.8582 81.75 46.3V47.2C81.75 47.6418 81.3918 48 80.95 48H73.8C73.3582 48 73 47.6418 73 47.2V46.3Z" fill="#7F977B"/>
<path d="M6 1.33H154V-1.33H6V1.33ZM158.67 6V104H161.33V6H158.67ZM154 108.67H6V111.33H154V108.67ZM1.33 104V6H-1.33V104H1.33ZM6 108.67C3.42083 108.67 1.33 106.579 1.33 104H-1.33C-1.33 108.048 1.95176 111.33 6 111.33V108.67ZM158.67 104C158.67 106.579 156.579 108.67 154 108.67V111.33C158.048 111.33 161.33 108.048 161.33 104H158.67ZM154 1.33C156.579 1.33 158.67 3.42083 158.67 6H161.33C161.33 1.95175 158.048 -1.33 154 -1.33V1.33ZM6 -1.33C1.95175 -1.33 -1.33 1.95175 -1.33 6H1.33C1.33 3.42083 3.42083 1.33 6 1.33V-1.33Z" fill="#7F977B"/>
</svg>
