<svg width="160" height="110" viewBox="0 0 160 110" fill="none" xmlns="http://www.w3.org/2000/svg">
<path d="M0 6C0 2.68629 2.68629 0 6 0H154C157.314 0 160 2.68629 160 6V104C160 107.314 157.314 110 154 110H6C2.6863 110 0 107.314 0 104V6Z" fill="white"/>
<path d="M47.912 65.056L47.64 65.136H44.216V79.392H45.864V66.832H47.08C46.856 67.92 46.552 69.312 46.264 70.32C47.08 71.472 47.24 72.544 47.24 73.312C47.24 73.792 47.16 74.16 47 74.304C46.888 74.4 46.744 74.448 46.584 74.448C46.424 74.448 46.248 74.448 45.992 74.432C46.264 74.896 46.376 75.6 46.392 76.064C46.712 76.08 47.064 76.08 47.336 76.032C47.688 75.984 47.992 75.872 48.216 75.68C48.696 75.296 48.904 74.608 48.904 73.552C48.904 72.592 48.712 71.44 47.832 70.128C48.248 68.864 48.76 67.168 49.128 65.76L47.912 65.056ZM51.24 64.48C50.616 66.656 49.496 68.816 48.232 70.208C48.568 70.576 49.128 71.456 49.336 71.856C49.576 71.584 49.816 71.28 50.04 70.96V79.328H51.704V68.096C52.184 67.088 52.6 66 52.936 64.944L51.24 64.48ZM52.232 71.456C52.728 72.56 53.336 74.048 53.608 75.008L55.128 74.272C54.84 73.328 54.232 71.904 53.688 70.8L52.232 71.456ZM58.552 67.936H57.384V64.768H55.56V67.936H52.264V69.696H55.56V77.152C55.56 77.392 55.48 77.456 55.24 77.472C55.016 77.472 54.328 77.472 53.624 77.456C53.864 77.984 54.152 78.816 54.2 79.344C55.336 79.344 56.136 79.264 56.664 78.96C57.208 78.64 57.384 78.112 57.384 77.168V69.696H58.552V67.936ZM72.72 70.72V76.752H74.672V70.72H77.184V68.96H70.512V67.008C72.784 66.88 75.216 66.576 77.024 66L75.472 64.608C73.856 65.104 71.072 65.392 68.576 65.488V68.944C68.576 70.896 68.448 73.584 67.088 75.472C67.552 75.68 68.384 76.272 68.736 76.624C69.888 75.024 70.32 72.736 70.448 70.72H72.72ZM66.72 66.832C66.24 66.208 65.328 65.2 64.56 64.448L63.136 65.312C63.888 66.112 64.816 67.216 65.28 67.904L66.72 66.832ZM66.368 71.984L66.08 72.032H64.864C65.728 70.944 66.752 69.488 67.376 68.608L66.208 68.08L66.032 68.16H62.736V69.68H64.8C64.208 70.528 63.536 71.408 63.232 71.696C62.944 72.016 62.672 72.144 62.416 72.208C62.576 72.544 62.928 73.36 63.024 73.744C63.152 73.616 63.616 73.504 64 73.504H65.392C64.864 75.68 63.808 77.248 62.32 78.128C62.672 78.368 63.28 79.04 63.52 79.408C64.336 78.88 65.024 78.16 65.616 77.216C66.848 78.816 68.672 79.12 71.568 79.12C73.44 79.12 75.472 79.088 77.12 78.976C77.216 78.464 77.456 77.6 77.728 77.216C75.92 77.392 73.312 77.488 71.616 77.488C69.088 77.472 67.328 77.28 66.352 75.776C66.768 74.784 67.088 73.632 67.296 72.32L66.368 71.984ZM85.368 67.872H92.504V68.56H85.368V67.872ZM85.368 66.112H92.504V66.768H85.368V66.112ZM96.008 70.4H89.992C89.88 70.176 89.736 69.952 89.592 69.744H94.408V64.944H83.544V69.744H88.424L87.688 69.968C87.784 70.096 87.88 70.24 87.96 70.4H81.896V71.904H96.008V70.4ZM85.32 76.128C84.456 76.816 82.904 77.456 81.496 77.856C81.912 78.16 82.584 78.816 82.888 79.184C84.28 78.64 85.992 77.744 87.064 76.832L85.32 76.128ZM85.752 73.776H92.248V74.672H85.752V73.776ZM94.168 75.968V72.48H83.928V75.968H88.072V77.68C88.072 77.856 87.992 77.904 87.768 77.92C87.56 77.936 86.712 77.936 86.056 77.904C86.28 78.32 86.488 78.896 86.584 79.36C87.704 79.36 88.536 79.36 89.16 79.152C89.784 78.944 89.976 78.576 89.976 77.76V75.968H94.168ZM90.664 77.2C92.04 77.744 93.864 78.608 94.76 79.2L96.088 78.032C95.096 77.424 93.24 76.624 91.896 76.176L90.664 77.2ZM102.512 67.008C102.736 67.712 102.896 68.608 102.928 69.232L103.76 68.96C103.712 68.352 103.504 67.392 103.264 66.672L102.512 66.896V66.224H103.856V69.696H102.512V67.008ZM106.384 66.928L105.616 66.656C105.504 67.28 105.232 68.224 105.008 68.848V66.224H106.384V66.928ZM105.008 69.696V68.992L105.68 69.248C105.888 68.8 106.128 68.096 106.384 67.44V69.696H105.008ZM108.048 73.904H105.264V73.104H107.824V71.664H105.264V70.976H107.856V64.944H101.088V70.976H103.584V71.664H101.12V73.104H103.584V73.904H100.8V75.344H108.048V73.904ZM101.744 79.152C102.192 78.384 102.48 77.168 102.688 76.192L101.424 75.728C101.248 76.672 100.864 77.872 100.416 78.608L101.744 79.152ZM102.976 76.192C103.104 77.072 103.168 78.224 103.136 78.992L104.352 78.848C104.368 78.08 104.288 76.944 104.128 76.064L102.976 76.192ZM104.592 76.16C104.88 77.008 105.152 78.112 105.216 78.832L106.384 78.592C106.304 77.872 106.016 76.784 105.728 75.952L104.592 76.16ZM113.104 77.04H110.144V73.696H113.104V77.04ZM115.472 69.52V67.76H112.368V64.48H110.512V71.968H108.416V78.112C108.224 77.424 107.776 76.448 107.312 75.728L106.192 76.128C106.64 76.928 107.088 78 107.248 78.72L108.416 78.256V79.376H110.144V78.768H113.104V79.328H114.928V71.968H112.368V69.52H115.472Z" fill="#7F977B"/>
<path d="M68 44.5L65.5 51.5H92.5L90 44.5C88.1667 45.8334 83.5 47.7 79.5 44.5C75.5 41.3 70.1667 43.1667 68 44.5Z" fill="#E5E5E5"/>
<path d="M74 29L79.3333 39L86 32.75L92.6667 51.5H66L74 29Z" stroke="#7F977B" stroke-width="2.5" stroke-linecap="round" stroke-linejoin="round"/>
<path d="M68.8533 44.1C72.3466 42.1375 75.8399 42.3125 79.3333 44.625C82.9866 47.05 86.6533 47.125 90.3066 44.8625" stroke="#7F977B" stroke-width="2.5" stroke-linecap="round" stroke-linejoin="round"/>
<path d="M6 1.33H154V-1.33H6V1.33ZM158.67 6V104H161.33V6H158.67ZM154 108.67H6V111.33H154V108.67ZM1.33 104V6H-1.33V104H1.33ZM6 108.67C3.42083 108.67 1.33 106.579 1.33 104H-1.33C-1.33 108.048 1.95176 111.33 6 111.33V108.67ZM158.67 104C158.67 106.579 156.579 108.67 154 108.67V111.33C158.048 111.33 161.33 108.048 161.33 104H158.67ZM154 1.33C156.579 1.33 158.67 3.42083 158.67 6H161.33C161.33 1.95175 158.048 -1.33 154 -1.33V1.33ZM6 -1.33C1.95175 -1.33 -1.33 1.95175 -1.33 6H1.33C1.33 3.42083 3.42083 1.33 6 1.33V-1.33Z" fill="#E5E5E5"/>
</svg>
